PathFileType	4	(X/Y/Z)	12_2_33_p1_0-589.trc
DataRate	CameraRate	NumFrames	NumMarkers	Units	OrigDataRate	OrigDataStartFrame	OrigNumFrames
59.0	59.0	6	27	m	59.0	147	590
Frame#	Time	RHip			RKnee			RAnkle			RBigToe			RSmallToe			RHeel			LHip			LKnee			LAnkle			LBigToe			LSmallToe			LHeel			Neck			Head			Nose			RShoulder			RElbow			RWrist			RThumb			RIndex			RPinky			LShoulder			LElbow			LWrist			LThumb			LIndex			LPinky			
		X1	Y1	Z1	X2	Y2	Z2	X3	Y3	Z3	X4	Y4	Z4	X5	Y5	Z5	X6	Y6	Z6	X7	Y7	Z7	X8	Y8	Z8	X9	Y9	Z9	X10	Y10	Z10	X11	Y11	Z11	X12	Y12	Z12	X13	Y13	Z13	X14	Y14	Z14	X15	Y15	Z15	X16	Y16	Z16	X17	Y17	Z17	X18	Y18	Z18	X19	Y19	Z19	X20	Y20	Z20	X21	Y21	Z21	X22	Y22	Z22	X23	Y23	Z23	X24	Y24	Z24	X25	Y25	Z25	X26	Y26	Z26	X27	Y27	Z27	
147	2.4915254237288136	0.44233195988738605	0.4961559330304694	1.0597543695181342	0.47197421761302333	0.5453556462365365	1.503648807242658	0.48102038330415076	0.6268279043257268	1.9383753496998746	0.4737689693289081	0.3803676525668044	1.9228610969276525	0.5260148249329645	0.4317272795712492	1.92987417018488	0.4635713400577068	0.6554539990036472	2.0124252496274786	0.21656205494942463	0.515858496539192	1.0897244753178805	0.27246252933676657	0.5474023858782439	1.5444391438857987	0.3249196971603914	0.590474736350418	1.9461685023846416	0.32537579627618674	0.38049086864342163	1.9405911971319703	0.2700132608674754	0.42119035177751335	1.9335493683304772	0.3447711788967142	0.6327350891693715	2.0008529224309157	0.24565094076728738	0.5277284976321257	0.43068667966791374	0.24328922378684026	0.4744758830011027	0.1751087813442176	0.2662930253713771	0.40866974987823507	0.2960385352789893	0.44103865040457746	0.5511159792568736	0.5265428790464468	0.5110835322160604	0.5039179426374931	0.7999164346265678	0.47677403694276743	0.40330236831529664	1.0386141895993684	0.4078685123285876	0.35563959157043123	1.1599942656591804	0.4435055361766808	0.35841471031915106	1.1928807681369793	0.4857439156682634	0.41023285433473716	1.210280944604989	0.08533378682317574	0.48910729027806155	0.5475825339259147	0.06362148935838577	0.5240907153759038	0.8459096572851961	0.16119107281701436	0.4236529101700979	1.0954524792268487	0.25420499193803653	0.41556791538446003	1.1804472487238744	0.22334454697976455	0.35474882463938023	1.1817762480048246	0.17759105919084356	0.4300592357788544	1.2226654843742228
148	2.5084745762711864	0.4420023961349354	0.4972862931009388	1.0563813838607568	0.47194222784378087	0.5453798228776773	1.5036163156556475	0.4810823520966549	0.626555685199095	1.9381349404624713	0.47375623125824545	0.38043991062226495	1.9228730417326483	0.5289002881359379	0.4171235847336833	1.9191172004994925	0.46446402559608563	0.6548941962654912	2.007184439243369	0.21656632051194016	0.5165065800553779	1.089559389207574	0.27298376263220087	0.5472837303795726	1.5400955719646856	0.3250035363578098	0.5902500111185829	1.9463278350819126	0.3253122336457222	0.3801465541890482	1.9403938492215758	0.2688389094961101	0.4196141877172831	1.928315426217583	0.34550092150300504	0.632550266742586	1.9951991093296821	0.2457067783295197	0.5275289095453233	0.43071250537894135	0.2400131517983082	0.46489889238976795	0.1715368490503742	0.2662394439204682	0.4086394029806835	0.2960497272042613	0.4410502847616494	0.5510860863922123	0.5265399967938413	0.5110203624827939	0.5044032141337148	0.7998362245418803	0.4881724721067661	0.4019091371261413	1.036314562919214	0.41229426661766655	0.3575508346554703	1.1563088821628655	0.4514546434051402	0.37085689558349866	1.196938993289505	0.48558134300977834	0.40996671514097666	1.2066781151915682	0.08275346667413042	0.4781496585769061	0.5461461549456775	0.05956944875353617	0.5207007910099875	0.8494671504947633	0.1609596191997978	0.4260901464303717	1.0963064091696229	0.25025926115655084	0.4137244833481793	1.1767717695339197	0.21866104527204236	0.35350444189412056	1.178313889538156	0.1708072829675834	0.41683395000442913	1.2177010976303133
149	2.5254237288135593	0.4421710798814182	0.49735413236439724	1.056490643372229	0.4719623776249511	0.5454997500384674	1.5036999432651588	0.4826176775903509	0.6278172675889367	1.9440994598197452	0.47223378518189746	0.3788790147479103	1.9174495764693293	0.5288870154294962	0.41689940829600325	1.9189579444656988	0.4638743248309577	0.6554127185612233	2.0126173046998805	0.21945443533654574	0.5287712147569704	1.0972629668606841	0.2729940121555143	0.5472024843768037	1.5400040194998112	0.3249230176683265	0.5905979948090797	1.9459344147825335	0.3251693046489637	0.3802346002004634	1.9403669981598919	0.2688113172368704	0.42007749054244076	1.9283976594555536	0.34467140283995634	0.6330178818842767	2.0002605925698487	0.24568333111909552	0.527439268224742	0.430613947666784	0.23983186088962566	0.4648532907761244	0.17156975967684562	0.2658199189843172	0.40904926078431275	0.29322020532658144	0.4410854426248352	0.5510428724583588	0.5265543267350562	0.5077698910207893	0.5182729967691977	0.8038566275330215	0.49601861151101295	0.38927574755151595	1.0301491752254104	0.4155193317938687	0.3584056013461439	1.1517475801500978	0.4509454437314414	0.37205944661707463	1.1936841826251663	0.48706625855143243	0.4116317896089168	1.2108734845647222	0.08279529969388853	0.4780205246218643	0.5461585447826733	0.05955682771389615	0.5211820018630401	0.845715935703804	0.15719868046363755	0.4227978128147455	1.09960391169915	0.24609540114777756	0.4117895657587817	1.1766535720869118	0.2185548122819905	0.3524637261610903	1.1818354280649583	0.1705510988118436	0.4160928302315989	1.21750369643428
150	2.542372881355932	0.4424729910411048	0.49726228667589595	1.05664440766238	0.4719895323637264	0.5455544368482332	1.5036761127536922	0.4809029075680177	0.626389774732775	1.9380513832552704	0.4736845571206627	0.380289317440759	1.922726499255781	0.5259548563488081	0.43173477940805505	1.929801909091297	0.4636212358890801	0.6555097195668275	2.0125140685494065	0.21921203286680394	0.5306656087882226	1.0901968746556157	0.27310236965473317	0.5473546606594387	1.5401637035613984	0.3284382764683385	0.6036744884125949	1.9538335709615586	0.3249763170589516	0.38039901147975186	1.940329903418994	0.26879411971316663	0.41989803954304633	1.9281901379683157	0.3453287045899668	0.6325621022606842	1.9947420819386394	0.24166456138051748	0.5164937092487272	0.42220225564747393	0.23931381029975107	0.46531463676937	0.16846077679632487	0.2617725331676844	0.4074063276934997	0.2934674925976846	0.4411248144455804	0.5512289803056737	0.5266968921610082	0.5043741205592576	0.5321473777611785	0.804603428148614	0.5036589900234398	0.37713874291560734	1.0209420565939127	0.42245367660081173	0.34874003607933096	1.1428605898681123	0.45419308150404886	0.3593840084882671	1.1875136296449966	0.4948767064552165	0.40078219435803814	1.2046316727946356	0.08277750235633818	0.47814847750006906	0.5462290901383619	0.059548624234280007	0.521525263817486	0.8456418409655684	0.15683110095591263	0.42278607303778754	1.0996794434543542	0.23734585316822984	0.4068485204100308	1.175795763032775	0.21290812610299378	0.36571566334451894	1.1841236870468579	0.1711900415949339	0.41475127611979173	1.220809590691358
151	2.559322033898305	0.4469062494802106	0.4970769185741803	1.0597478156477869	0.47194139314117256	0.5456703078787863	1.503727760100988	0.4809054829170058	0.6263728369285382	1.938022914405524	0.4722253059905984	0.37880725427422973	1.9174423789839985	0.528946909125638	0.4172255083681206	1.9190177172813112	0.4631890340058546	0.654195971011368	2.011466844670858	0.21997878449843614	0.5290232235434981	1.0938193419455167	0.27294181273383306	0.5468834589897814	1.5398017375313164	0.32845815836335746	0.6036814539386117	1.9539603534870635	0.3250834829799328	0.3798354155392124	1.9401208902208655	0.2687409257645049	0.4194307899628396	1.9281099638330041	0.3448475572170733	0.6332431067641494	2.000731946679371	0.2416353884196282	0.5165254693974556	0.4221476373191926	0.23123480020047643	0.4745838225855388	0.16656459429399414	0.26123577400523185	0.40795340651773426	0.29000943947976465	0.44134590531900564	0.5507170274764582	0.5303878157393401	0.5037929185114998	0.5332531671348785	0.8008206017654976	0.5040234478153204	0.37711007120949647	1.0172682688199266	0.43090474306638377	0.35244642602723597	1.1385170472662551	0.4544142246027707	0.3592312637015298	1.1872613296433312	0.4964190951842658	0.4024949821851699	1.2047941890460334	0.08327840719708197	0.47908917699348313	0.5499096587280665	0.05949807129040075	0.5218282773711144	0.845750612793777	0.14655568561732651	0.43290906861442835	1.0969459860060446	0.23636358262681967	0.4078299624230384	1.1760368731993445	0.21149802135166035	0.3681178812758317	1.1805927812700654	0.1650718910667917	0.42708121445831077	1.2266678238293358
152	2.5762711864406778	0.4463050322127811	0.4988520201809011	1.0563942572846092	0.4764298516290545	0.5565764611315088	1.5171968019015538	0.48093323807049526	0.626306464032292	1.9380647135224431	0.47380492865130286	0.3803715711124433	1.922732776957122	0.5290531762930855	0.41731379189994317	1.9191514873202031	0.4632231325630184	0.6536979454075078	2.0112301848011187	0.21980695722413404	0.5290069633110507	1.0939847395596953	0.27381906458677113	0.5484115709127021	1.5448629230883149	0.3249375522923028	0.5904639209197551	1.9460407439939886	0.32510884241285753	0.38064892622839114	1.9406615846443303	0.26993584706726315	0.421513925805508	1.9337664960668135	0.3446896913785704	0.6325065862945161	2.000508358255674	0.24155464472824786	0.5164015092152696	0.42203650650192204	0.2311205243425645	0.47463448533565655	0.16654782112864658	0.25857011180211376	0.39760821257622037	0.28928066544983844	0.44141516166449013	0.550630313065396	0.5303570187974027	0.5036369674168097	0.5330219002628962	0.8006102184093409	0.5042876523176052	0.37720576584144344	1.017169053991044	0.4311438637659124	0.35198286502182363	1.142188771141148	0.45832946957764975	0.3682971670410688	1.1906210101092773	0.5010239797893749	0.4052240773971536	1.205198170096458	0.08322525047265207	0.47899969302533796	0.5499500069182521	0.059498323881889754	0.5217004234607465	0.845618003253404	0.14256971178075514	0.4306885858033784	1.0967092923399775	0.22799038269074123	0.393821811601413	1.17132822806767	0.2044653532658882	0.3556973340513964	1.176781627450465	0.15711026776263448	0.41557948107306786	1.216605082524699
